<?xml version="1.0" standalone="no"?>
<!DOCTYPE svg PUBLIC "-//W3C//DTD SVG 20010904//EN"
 "http://www.w3.org/TR/2001/REC-SVG-20010904/DTD/svg10.dtd">
<svg version="1.0" xmlns="http://www.w3.org/2000/svg"
 width="260.000000pt" height="260.000000pt" viewBox="0 0 260.000000 260.000000"
 preserveAspectRatio="xMidYMid meet">
<metadata>
Created by potrace 1.11, written by Peter Selinger 2001-2013
</metadata>
<g transform="translate(0.000000,260.000000) scale(0.100000,-0.100000)"
fill="#000000" stroke="none">
<path d="M1120 2574 c-110 -15 -261 -61 -369 -111 -80 -37 -214 -119 -219
-134 -2 -5 -7 -9 -12 -9 -12 0 -82 -63 -154 -137 -106 -111 -187 -237 -264
-414 -22 -50 -54 -164 -68 -239 -21 -120 -25 -280 -10 -400 9 -74 46 -222 58
-237 6 -7 8 -13 5 -13 -10 0 62 -161 100 -225 186 -310 466 -519 808 -604 211
-52 464 -47 665 13 208 63 382 165 535 313 55 53 77 79 148 168 84 107 189
338 213 470 3 16 7 32 9 35 8 13 19 156 19 250 0 114 -8 195 -28 283 -152 655
-769 1081 -1436 991z"/>
</g>
</svg>
